<svg xmlns="http://www.w3.org/2000/svg" version="1.1" xmlns:xlink="http://www.w3.org/1999/xlink" viewBox="0 0 200 200"><rect width="200" height="200" fill="url('#gradient')"></rect><defs><linearGradient id="gradient" gradientTransform="rotate(45 0.5 0.5)"><stop offset="0%" stop-color="#ffffff"></stop><stop offset="100%" stop-color="#41373f"></stop></linearGradient></defs><g><g fill="#fcf8f4" transform="matrix(1.7380169728220003,0,0,1.7380169728220003,19.831036077418823,112.35298560597687)" stroke="#eeebe9" stroke-width="0"><path d="M13.12-7.47L13.12-6.82Q13.12-4.74 12.34-3.13Q11.57-1.53 10.15-0.67Q8.73 0.20 6.91 0.20Q5.10 0.20 3.69-0.64Q2.29-1.47 1.50-3.03Q0.71-4.58 0.67-6.59L0.67-6.59L0.67-7.39Q0.67-9.48 1.44-11.08Q2.21-12.68 3.64-13.54Q5.07-14.41 6.89-14.41L6.89-14.41Q8.70-14.41 10.12-13.55Q11.53-12.70 12.32-11.11Q13.11-9.52 13.12-7.47L13.12-7.47ZM9.63-6.76L9.63-7.41Q9.63-9.53 8.92-10.63Q8.21-11.73 6.89-11.73L6.89-11.73Q4.32-11.73 4.17-7.86L4.17-7.86L4.16-6.82Q4.16-4.73 4.85-3.60Q5.55-2.48 6.91-2.48L6.91-2.48Q8.21-2.48 8.92-3.58Q9.62-4.69 9.63-6.76L9.63-6.76ZM20.26-2.97L20.26-2.97Q20.26-3.39 19.82-3.64Q19.38-3.90 18.15-4.17Q16.92-4.44 16.12-4.89Q15.32-5.33 14.90-5.97Q14.48-6.60 14.48-7.42L14.48-7.42Q14.48-8.88 15.68-9.82Q16.88-10.76 18.83-10.76L18.83-10.76Q20.92-10.76 22.19-9.81Q23.46-8.87 23.46-7.32L23.46-7.32L20.16-7.32Q20.16-8.59 18.82-8.59L18.82-8.59Q18.30-8.59 17.95-8.31Q17.60-8.02 17.60-7.59L17.60-7.59Q17.60-7.15 18.03-6.88Q18.46-6.60 19.40-6.43Q20.34-6.25 21.05-6.01L21.05-6.01Q23.44-5.19 23.44-3.07L23.44-3.07Q23.44-1.62 22.15-0.71Q20.87 0.20 18.83 0.20L18.83 0.20Q17.47 0.20 16.41-0.29Q15.34-0.78 14.75-1.62Q14.15-2.46 14.15-3.39L14.15-3.39L17.23-3.39Q17.25-2.66 17.71-2.32Q18.18-1.98 18.92-1.98L18.92-1.98Q19.59-1.98 19.93-2.26Q20.26-2.53 20.26-2.97ZM29.44-2.34L29.44-2.34Q30.14-2.34 30.52-2.72Q30.90-3.10 30.89-3.77L30.89-3.77L33.97-3.77Q33.97-2.03 32.73-0.92Q31.48 0.20 29.52 0.20L29.52 0.20Q27.22 0.20 25.89-1.25Q24.56-2.70 24.56-5.25L24.56-5.25L24.56-5.39Q24.56-6.99 25.15-8.22Q25.74-9.44 26.86-10.10Q27.97-10.76 29.49-10.76L29.49-10.76Q31.55-10.76 32.76-9.62Q33.97-8.48 33.97-6.52L33.97-6.52L30.89-6.52Q30.89-7.34 30.49-7.78Q30.09-8.22 29.41-8.22L29.41-8.22Q28.13-8.22 27.92-6.59L27.92-6.59Q27.85-6.07 27.85-5.17L27.85-5.17Q27.85-3.57 28.23-2.96Q28.61-2.34 29.44-2.34ZM44.61 0L41.32 0Q41.14-0.32 41.01-0.95L41.01-0.95Q40.10 0.20 38.47 0.20L38.47 0.20Q36.97 0.20 35.93-0.71Q34.88-1.61 34.88-2.98L34.88-2.98Q34.88-4.70 36.15-5.58Q37.42-6.46 39.84-6.46L39.84-6.46L40.86-6.46L40.86-7.01Q40.86-8.47 39.60-8.47L39.60-8.47Q38.43-8.47 38.43-7.31L38.43-7.31L35.14-7.31Q35.14-8.85 36.44-9.80Q37.74-10.76 39.77-10.76Q41.79-10.76 42.96-9.78Q44.13-8.79 44.16-7.07L44.16-7.07L44.16-2.39Q44.18-0.94 44.61-0.17L44.61-0.17L44.61 0ZM39.26-2.15L39.26-2.15Q39.87-2.15 40.28-2.41Q40.68-2.68 40.86-3.01L40.86-3.01L40.86-4.70L39.90-4.70Q38.18-4.70 38.18-3.15L38.18-3.15Q38.18-2.71 38.49-2.43Q38.79-2.15 39.26-2.15ZM52.43-10.64L52.37-7.59L51.29-7.67Q49.74-7.67 49.30-6.69L49.30-6.69L49.30 0L46.01 0L46.01-10.57L49.09-10.57L49.20-9.21Q50.03-10.76 51.51-10.76L51.51-10.76Q52.04-10.76 52.43-10.64L52.43-10.64ZM63.37 0L58.69 0L58.69-14.22L63.27-14.22Q65.16-14.22 66.66-13.36Q68.16-12.51 69.01-10.95Q69.85-9.39 69.86-7.46L69.86-7.46L69.86-6.81Q69.86-4.85 69.04-3.31Q68.21-1.76 66.71-0.88Q65.21-0.01 63.37 0L63.37 0ZM63.27-11.57L62.12-11.57L62.12-2.64L63.31-2.64Q64.79-2.64 65.58-3.69Q66.37-4.74 66.37-6.81L66.37-6.81L66.37-7.42Q66.37-9.48 65.58-10.53Q64.79-11.57 63.27-11.57L63.27-11.57ZM76.58 0.20L76.58 0.20Q74.15 0.20 72.65-1.25Q71.14-2.71 71.14-5.03L71.14-5.03L71.14-5.30Q71.14-6.92 71.74-8.16Q72.34-9.40 73.50-10.08Q74.65-10.76 76.23-10.76L76.23-10.76Q78.46-10.76 79.75-9.38Q81.04-8.00 81.04-5.53L81.04-5.53L81.04-4.25L74.49-4.25Q74.67-3.36 75.26-2.85Q75.86-2.34 76.81-2.34L76.81-2.34Q78.37-2.34 79.25-3.44L79.25-3.44L80.75-1.66Q80.14-0.81 79.01-0.31Q77.88 0.20 76.58 0.20ZM76.21-8.22L76.21-8.22Q74.77-8.22 74.49-6.31L74.49-6.31L77.81-6.31L77.81-6.56Q77.83-7.35 77.41-7.79Q76.99-8.22 76.21-8.22ZM84.80-10.57L86.45-3.92L88.12-10.57L91.58-10.57L88.13 0L84.78 0L81.33-10.57L84.80-10.57Z"></path></g></g></svg>